Coordinates
version=1
nRows=15
nColumns=34
inDegrees=no

Units are S.I. units (second, meters, Newtons, ...)
If the header above contains a line with 'inDegrees', this indicates whether rotational values are in degrees (yes) or radians (no).

endheader
time	pelvis_tilt	pelvis_list	pelvis_rotation	pelvis_tx	pelvis_ty	pelvis_tz	hip_flexion_r	hip_adduction_r	hip_rotation_r	knee_angle_r	ankle_angle_r	subtalar_angle_r	mtp_angle_r	hip_flexion_l	hip_adduction_l	hip_rotation_l	knee_angle_l	ankle_angle_l	subtalar_angle_l	mtp_angle_l	lumbar_extension	lumbar_bending	lumbar_rotation	arm_flex_r	arm_add_r	arm_rot_r	elbow_flex_r	pro_sup_r	arm_flex_l	arm_add_l	arm_rot_l	elbow_flex_l	pro_sup_l
0.92	-0.106768	0.171838	-0.0857535	0.975407	0.933051	-0.273379	0.636538	-0.170077	0.0952977	1.02536	0.219231	-0.257497	-0.00500621	0.103006	0.236543	-0.125738	0.164286	0.359237	0.188507	-0.00539234	0.0503977	-0.15503	-0.00761585	-0.195307	-0.139517	-0.0709883	0.458314	1.65059	-0.0177261	-0.182833	-0.188072	0.71649	1.88646
0.93	-0.10834	0.164973	-0.082973	0.986128	0.932605	-0.273271	0.647906	-0.162145	0.0826554	0.969638	0.225751	-0.260453	-0.00503404	0.0889884	0.230454	-0.122258	0.161994	0.370206	0.195189	-0.0053449	0.0474543	-0.146853	-0.0173665	-0.208267	-0.143421	-0.0750197	0.462006	1.64823	-0.00228421	-0.18822	-0.182241	0.726991	1.88924
0.94	-0.110206	0.158074	-0.0796075	0.996903	0.931996	-0.273137	0.656626	-0.154887	0.0667828	0.908698	0.232164	-0.257295	-0.00506185	0.0756295	0.224138	-0.119357	0.16063	0.381528	0.202398	-0.00529745	0.044919	-0.138858	-0.0273052	-0.220941	-0.147294	-0.0783818	0.465605	1.64651	0.0126499	-0.193594	-0.177214	0.737315	1.89187
0.95	-0.112195	0.151073	-0.0757089	1.00774	0.931238	-0.272966	0.662506	-0.148105	0.0475953	0.842927	0.238916	-0.24578	-0.00508967	0.0626727	0.217469	-0.117473	0.16009	0.393316	0.210796	-0.00525001	0.0425826	-0.130995	-0.0374031	-0.233201	-0.15101	-0.081442	0.468865	1.64573	0.0270436	-0.198934	-0.172923	0.747557	1.89451
0.96	-0.114093	0.14387	-0.0713585	1.01865	0.930351	-0.272742	0.665364	-0.141493	0.0252287	0.772886	0.246283	-0.224093	-0.00511747	0.0498535	0.210249	-0.117118	0.160357	0.405699	0.221117	-0.00520256	0.0401858	-0.123182	-0.047595	-0.244924	-0.154444	-0.0845746	0.471587	1.64604	0.0408922	-0.204223	-0.16934	0.757803	1.89727
0.97	-0.115664	0.136351	-0.0666539	1.02963	0.929353	-0.272449	0.665066	-0.134661	9.48227e-05	0.699358	0.254343	-0.191193	-0.00514527	0.0369297	0.202217	-0.1188	0.161511	0.418798	0.234068	-0.00515512	0.0374523	-0.115312	-0.0577855	-0.255998	-0.157478	-0.0881179	0.473607	1.64742	0.054208	-0.209445	-0.166453	0.768129	1.90026
0.98	-0.116674	0.128403	-0.0616938	1.0407	0.928268	-0.272069	0.661571	-0.127183	-0.0270923	0.623386	0.262977	-0.14711	-0.00517307	0.0237065	0.193093	-0.122936	0.163703	0.432688	0.250198	-0.00510767	0.0341282	-0.107266	-0.0678578	-0.266328	-0.160006	-0.0923389	0.474792	1.64971	0.0670061	-0.214591	-0.164251	0.77859	1.90348
0.99	-0.116901	0.119932	-0.0565694	1.05189	0.927116	-0.271583	0.654976	-0.118661	-0.055335	0.546308	0.271901	-0.0931178	-0.00520086	0.0100506	0.18262	-0.129765	0.167127	0.447362	0.269775	-0.00506023	0.0300194	-0.098923	-0.0776829	-0.275848	-0.161952	-0.0974083	0.47503	1.65262	0.0792921	-0.219648	-0.162696	0.789226	1.90687
1	-0.116178	0.110865	-0.0513684	1.0632	0.925916	-0.27098	0.645543	-0.108798	-0.0834302	0.46977	0.280727	-0.0317216	-0.00522864	-0.00411505	0.170628	-0.13927	0.171958	0.462705	0.292684	-0.0050128	0.0250115	-0.0901981	-0.0871274	-0.284517	-0.163277	-0.103388	0.474222	1.65582	0.0910512	-0.224592	-0.161714	0.800046	1.91029
1.01	-0.114418	0.101183	-0.0461742	1.07466	0.924688	-0.270257	0.633704	-0.0974638	-0.110116	0.395707	0.289054	0.0335875	-0.00525642	-0.0188272	0.157081	-0.151146	0.178296	0.478472	0.31837	-0.00496536	0.019077	-0.0810516	-0.0960563	-0.292326	-0.16399	-0.110234	0.472282	1.65899	0.102242	-0.229383	-0.161186	0.811026	1.91351
1.02	-0.111613	0.0909391	-0.0410677	1.08629	0.923448	-0.269419	0.620055	-0.084739	-0.134273	0.326268	0.296549	0.0987814	-0.0052842	-0.0341002	0.142117	-0.164789	0.186114	0.49428	0.345835	-0.00491791	0.0122821	-0.0715004	-0.104334	-0.299289	-0.16415	-0.117806	0.46913	1.66183	0.112797	-0.233955	-0.160965	0.822101	1.91632
1.03	-0.107824	0.0802673	-0.0361312	1.0981	0.922208	-0.268478	0.605315	-0.0709283	-0.155145	0.2637	0.303	0.159885	-0.00531198	-0.0499425	0.126052	-0.179341	0.195224	0.509629	0.373705	-0.00487047	0.00478126	-0.0616196	-0.111827	-0.305437	-0.163867	-0.125892	0.464695	1.6641	0.122621	-0.238215	-0.160892	0.833165	1.91852
1.04	-0.103175	0.0693676	-0.031451	1.11012	0.92098	-0.267458	0.590269	-0.0565287	-0.172525	0.210161	0.30832	0.213576	-0.00533975	-0.0663633	0.109357	-0.193769	0.205284	0.523926	0.400357	-0.00482302	-0.00319522	-0.0515331	-0.118411	-0.310811	-0.163286	-0.134238	0.458917	1.66563	0.131596	-0.242044	-0.160816	0.844073	1.92
1.05	-0.0978498	0.0584776	-0.0271138	1.12235	0.919771	-0.266391	0.575699	-0.0421525	-0.186808	0.167493	0.312467	0.257617	-0.00536752	-0.0833596	0.0925959	-0.206978	0.215841	0.536539	0.424088	-0.00477558	-0.0113557	-0.0413904	-0.12398	-0.315459	-0.162575	-0.142571	0.451753	1.66631	0.139588	-0.245307	-0.16062	0.854655	1.92071
1.06	-0.0920808	0.0478321	-0.0231988	1.1348	0.918579	-0.265309	0.562303	-0.0284127	-0.198884	0.13697	0.31532	0.291014	-0.00539528	-0.100889	0.0763316	-0.21795	0.226415	0.546853	0.443318	-0.00472813	-0.0193641	-0.0313325	-0.128459	-0.319427	-0.1619	-0.150626	0.443181	1.66606	0.146446	-0.247867	-0.160233	0.86473	1.92071
